<?xml version="1.0" encoding="UTF-8" standalone="no"?>
<svg width="95px" height="26px" viewBox="0 0 95 26" version="1.1" xmlns="http://www.w3.org/2000/svg" xmlns:xlink="http://www.w3.org/1999/xlink">
    <!-- Generator: Sketch 3.6.1 (26313) - http://www.bohemiancoding.com/sketch -->
    <title>logo_movile</title>
    <desc>Created with Sketch.</desc>
    <defs></defs>
    <g id="Page-1" stroke="none" stroke-width="1" fill="none" fill-rule="evenodd">
        <g id="Ranking-Full" transform="translate(-505.000000, -35.000000)">
            <g id="Header" transform="translate(19.000000, 30.000000)">
                <g id="logo_movile" transform="translate(486.000000, 5.000000)">
                    <g id="Fill-1-+-Fill-3">
                        <path d="M68.069103,3.83266827 C68.3645648,3.83266827 68.5862877,3.61173077 68.5862877,3.31675481 L68.5862877,0.664495192 C68.5862877,0.3696875 68.3645648,0.14875 68.069103,0.14875 L65.409103,0.14875 C65.1136412,0.14875 64.892087,0.3696875 64.892087,0.664495192 L64.892087,3.31675481 C64.892087,3.61173077 65.1136412,3.83266827 65.409103,3.83266827 L68.069103,3.83266827 L68.069103,3.83266827 Z M68.069103,25.8628125 C68.3645648,25.8628125 68.5862877,25.6413702 68.5862877,25.346899 L68.5862877,8.03233173 C68.5862877,7.73752404 68.3645648,7.51658654 68.069103,7.51658654 L65.409103,7.51658654 C65.1136412,7.51658654 64.892087,7.73752404 64.892087,8.03233173 L64.892087,25.346899 C64.892087,25.6413702 65.1136412,25.8628125 65.409103,25.8628125 L68.069103,25.8628125 L68.069103,25.8628125 Z M74.297087,25.8628125 C74.5925488,25.8628125 74.814103,25.6413702 74.814103,25.346899 L74.814103,0.664495192 C74.814103,0.3696875 74.5925488,0.14875 74.297087,0.14875 L71.637087,0.14875 C71.341794,0.14875 71.1197336,0.3696875 71.1197336,0.664495192 L71.1197336,25.346899 C71.1197336,25.6413702 71.341794,25.8628125 71.637087,25.8628125 L74.297087,25.8628125 L74.297087,25.8628125 Z M56.004103,25.8628125 C56.5953641,25.8628125 56.669103,25.4941346 56.7431794,25.346899 L63.1707815,8.03233173 C63.3189343,7.73752404 63.0973801,7.51658654 62.8019183,7.51658654 L59.7725488,7.51658654 C59.4769183,7.51658654 59.4028419,7.73752404 59.2550266,8.03233173 L54.6744405,20.8522596 L50.1674245,8.03233173 C50.0194405,7.73752404 49.9458703,7.51658654 49.6504085,7.51658654 L46.5471314,7.51658654 C46.2516696,7.51658654 46.0299467,7.73752404 46.1775933,8.03233173 L52.6057016,25.346899 C52.7533481,25.6413702 52.9752398,25.8628125 53.2705329,25.8628125 L56.004103,25.8628125 L56.004103,25.8628125 Z M25.4900355,13.7792308 C25.4900355,10.2425481 22.4608348,7.36935096 18.6927265,7.36935096 L17.9539876,7.36935096 C16.2544494,7.36935096 14.1858792,8.10603365 12.7819716,9.57973558 C11.2304174,8.03233173 9.38340142,7.36935096 7.61012433,7.36935096 L6.79730906,7.36935096 C3.02920071,7.36935096 0,10.2425481 0,13.7792308 L0,25.346899 C0,25.6413702 0.221722913,25.8628125 0.517184725,25.8628125 L3.32483126,25.8628125 C3.62046181,25.8628125 3.84201599,25.6413702 3.84201599,25.346899 L3.84201599,13.8529327 C3.84201599,12.4529327 5.17201599,11.0532692 6.79730906,11.0532692 L7.61012433,11.0532692 C9.6049556,11.0532692 10.9349556,12.0847596 10.9349556,13.8529327 L10.9349556,25.346899 C11.0088632,25.788774 11.2304174,25.8628125 11.4521403,25.8628125 L14.1858792,25.8628125 C14.5552487,25.8628125 14.7030639,25.6413702 14.7030639,25.346899 L14.7030639,13.8529327 C14.7030639,12.0847596 16.0330639,11.0532692 17.9539876,11.0532692 L18.6927265,11.0532692 C20.5399112,11.0532692 21.6481883,12.4529327 21.6481883,13.8529327 L21.6481883,25.346899 C21.6481883,25.6413702 21.8697425,25.8628125 22.165373,25.8628125 L24.9728508,25.8628125 C25.2684813,25.8628125 25.4900355,25.6413702 25.4900355,25.346899 L25.4900355,13.7792308 L25.4900355,13.7792308 Z M80.6725488,13.7792308 C80.6725488,12.379399 82.1500266,11.2003365 83.9234725,11.2003365 L88.2089343,11.2003365 C89.9822114,11.2003365 91.3122114,12.379399 91.3122114,13.7792308 L91.3122114,15.0318269 L80.6725488,15.0318269 L80.6725488,13.7792308 L80.6725488,13.7792308 Z M91.4596892,20.1155769 C91.090151,20.1155769 90.9425044,20.6313221 90.9425044,20.6313221 C90.2037655,21.9576202 89.1692274,22.178726 88.2089343,22.178726 L83.9234725,22.178726 C82.1500266,22.178726 80.6725488,20.9998317 80.6725488,19.5998317 L80.6725488,18.1261298 L94.3410746,18.1261298 C94.6365364,18.1261298 94.8584281,17.9053606 94.8584281,17.6103846 L94.8584281,13.7792308 C94.8584281,10.2425481 91.9029663,7.51658654 88.2089343,7.51658654 L83.9234725,7.51658654 C80.1550266,7.51658654 77.1261634,10.2425481 77.1261634,13.7792308 L77.1261634,19.5998317 C77.1261634,22.9154087 80.0077176,25.6413702 83.7019183,25.8628125 L88.1348579,25.8628125 C91.6812433,25.8628125 94.5627975,22.620601 94.5627975,20.6313221 C94.5627975,20.336851 94.3410746,20.1155769 94.0456128,20.1155769 L91.4596892,20.1155769 L91.4596892,20.1155769 Z" id="Fill-1" fill="#1A1918"></path>
                        <path d="M42.335746,19.6735337 C42.335746,21.0733654 41.005746,22.178726 39.1588988,22.178726 L34.3562522,22.178726 C32.656714,22.178726 31.3268828,21.0733654 31.3268828,19.6735337 L31.3268828,13.7792308 C31.3268828,12.379399 32.656714,11.2003365 34.3562522,11.2003365 L39.1588988,11.2003365 C41.005746,11.2003365 42.335746,12.379399 42.335746,13.7792308 L42.335746,19.6735337 L42.335746,19.6735337 Z M39.1588988,7.51658654 L34.3562522,7.51658654 C30.6618828,7.51658654 27.6328508,10.2425481 27.6328508,13.7792308 L27.6328508,19.5998317 C27.6328508,22.9154087 30.7357904,25.8628125 34.3562522,25.8628125 L39.1588988,25.8628125 C42.9266696,25.8628125 46.0299467,22.9154087 46.0299467,19.5998317 L46.0299467,13.7792308 C46.0299467,10.2425481 42.9266696,7.51658654 39.1588988,7.51658654 L39.1588988,7.51658654 Z" id="Fill-3" fill="#D8117D"></path>
                    </g>
                </g>
            </g>
        </g>
    </g>
</svg>